#!OML:ASF H:\Not Pregnant\Project 1\Capture day 1\Session 1\non-pregnant.ASF
:FULLY-SPECIFIED
:DEGREES
824
root 1.81357 16.525 -28.8719 30.9517 -67.6139 -382.813
lowerback 3.38782 3.41934 11.5426
upperback -5.42706 5.33875 0.18216
thorax -6.66897 1.99756 -6.68747
lowerneck 0.473124 -1.89441 -34.2873
upperneck 8.56607 -4.97992 34.5115
head 4.10307 -2.85558 19.0979
rclavicle 8.93692e-014 3.65764e-014
rhumerus -36.5772 -1.52364 -78.522
rradius 25.5694
rwrist 23.084
rhand -7.24506 -0.422672
rfingers 7.12502
rthumb 18.6351 -29.5501
lclavicle 8.93692e-014 3.65764e-014
lhumerus -45.7211 -0.420984 80.2374
lradius 40.0923
lwrist 38.8934
lhand -12.8514 -9.43435
lfingers 7.12502
lthumb 13.2364 20.1254
rfemur -24.5375 0.725144 27.9506
rtibia 33.8154
rfoot -21.5601 9.68597
rtoes -11.8805
lfemur -37.3567 3.53468 -16.6767
ltibia 66.348
lfoot -9.93024 -10.9226
ltoes -11.2098
825
root 1.7208 16.5129 -28.8511 30.719 -66.9429 -382.723
lowerback 3.56655 3.42783 11.7902
upperback -5.358 5.38983 0.184512
thorax -6.6712 2.01288 -6.83606
lowerneck 0.626002 -1.94784 -34.2477
upperneck 8.42299 -5.1012 34.6542
head 4.08792 -2.92548 19.1592
rclavicle 5.50199e-014 1.90833e-014
rhumerus -36.1385 -1.74882 -78.3878
rradius 25.5608
rwrist 23.056
rhand -7.32595 -0.546343
rfingers 7.12502
rthumb 18.5573 -29.6812
lclavicle 5.50199e-014 1.90833e-014
lhumerus -45.4973 -0.577859 80.3651
lradius 40.6165
lwrist 39.0108
lhand -12.8377 -9.41674
lfingers 7.12502
lthumb 13.2497 20.1421
rfemur -23.9533 0.530411 28.2782
rtibia 33.798
rfoot -21.9427 9.02882
rtoes -12.2418
lfemur -38.3438 3.80469 -16.6985
ltibia 65.7177
lfoot -10.8296 -9.76407
ltoes -12.0505
826
root 1.62773 16.5019 -28.8292 30.4856 -66.2738 -382.641
lowerback 3.74605 3.4405 12.0398
upperback -5.28551 5.44697 0.180017
thorax -6.66765 2.03157 -6.99349
lowerneck 0.779576 -2.00529 -34.1869
upperneck 8.2745 -5.22554 34.7798
head 4.07151 -2.99636 19.2049
rclavicle 4.15615e-014 4.6118e-014
rhumerus -35.6991 -2.00581 -78.2483
rradius 25.5623
rwrist 23.0282
rhand -7.38702 -0.645471
rfingers 7.12502
rthumb 18.4986 -29.7859
lclavicle 4.15615e-014 4.6118e-014
lhumerus -45.2705 -0.74167 80.4935
lradius 41.1448
lwrist 39.1602
lhand -12.845 -9.36923
lfingers 7.12502
lthumb 13.2427 20.1901
rfemur -23.3391 0.321008 28.6012
rtibia 33.7308
rfoot -22.2804 8.42939
rtoes -12.4717
lfemur -39.2661 4.03649 -16.7342
ltibia 64.9441
lfoot -11.5711 -8.60957
ltoes -12.8237
827
root 1.53437 16.4931 -28.806 30.2258 -65.609 -382.53
lowerback 3.91987 3.45474 12.2697
upperback -5.21178 5.50445 0.1733
thorax -6.65997 2.0519 -7.14206
lowerneck 0.921875 -2.07264 -34.1197
upperneck 8.12798 -5.35872 34.8881
head 4.06107 -3.07082 19.2384
rclavicle 4.40991e-014 -2.14687e-014
rhumerus -35.2603 -2.23668 -78.1137
rradius 25.5844
rwrist 22.9661
rhand -7.45516 -0.740132
rfingers 7.12502
rthumb 18.433 -29.8868
lclavicle 4.40991e-014 -2.14687e-014
lhumerus -45.0428 -0.900533 80.6302
lradius 41.6719
lwrist 39.3372
lhand -12.9163 -9.34291
lfingers 7.12502
lthumb 13.1738 20.2209
rfemur -22.7001 0.0874071 28.9029
rtibia 33.609
rfoot -22.576 7.89421
rtoes -12.5746
lfemur -40.1268 4.21482 -16.7939
ltibia 64.0283
lfoot -12.2044 -7.41309
ltoes -13.5876
828
root 1.44097 16.4863 -28.7815 29.9476 -64.9585 -382.389
lowerback 4.08845 3.47681 12.4819
upperback -5.14314 5.57069 0.154062
thorax -6.65244 2.07706 -7.29473
lowerneck 1.06504 -2.14595 -34.0322
upperneck 7.97739 -5.49846 34.9817
head 4.05106 -3.14809 19.2576
rclavicle 6.90156e-015 -2.10712e-014
rhumerus -34.832 -2.46082 -77.989
rradius 25.6288
rwrist 22.8807
rhand -7.52722 -0.832336
rfingers 7.12502
rthumb 18.3637 -29.9855
lclavicle 6.90156e-015 -2.10712e-014
lhumerus -44.8136 -1.08656 80.7716
lradius 42.1955
lwrist 39.5448
lhand -13.0333 -9.32992
lfingers 7.12502
lthumb 13.0611 20.2411
rfemur -22.049 -0.166587 29.1781
rtibia 33.436
rfoot -22.8349 7.41394
rtoes -12.6053
lfemur -40.9335 4.354 -16.8838
ltibia 62.9761
lfoot -12.7793 -6.12333
ltoes -14.5587
829
root 1.34775 16.4818 -28.7554 29.6473 -64.3285 -382.21
lowerback 4.25501 3.50532 12.6499
upperback -5.08615 5.64328 0.135234
thorax -6.65768 2.10629 -7.42347
lowerneck 1.20379 -2.22489 -33.9376
upperneck 7.83748 -5.64411 35.0524
head 4.04626 -3.22801 19.2614
rclavicle -1.08897e-014 -5.00937e-014
rhumerus -34.4145 -2.66754 -77.8548
rradius 25.6831
rwrist 22.7895
rhand -7.60299 -0.899906
rfingers 7.12502
rthumb 18.2908 -30.06
lclavicle -1.08897e-014 -5.00937e-014
lhumerus -44.6006 -1.26783 80.9266
lradius 42.714
lwrist 39.766
lhand -13.3214 -9.47576
lfingers 7.12502
lthumb 12.7834 20.1129
rfemur -21.3959 -0.442721 29.4186
rtibia 33.2192
rfoot -23.0571 7.00593
rtoes -12.5637
lfemur -41.69 4.45634 -17.0086
ltibia 61.7936
lfoot -13.2622 -4.75554
ltoes -15.539
830
root 1.25487 16.479 -28.7276 29.3298 -63.7202 -381.985
lowerback 4.40493 3.53239 12.774
upperback -5.04075 5.70942 0.1217
thorax -6.67053 2.13365 -7.5212
lowerneck 1.3221 -2.30392 -33.8534
upperneck 7.71728 -5.78382 35.1035
head 4.04803 -3.30384 19.2573
rclavicle -9.93923e-016 -1.07344e-014
rhumerus -33.9947 -2.82503 -77.7197
rradius 25.7415
rwrist 22.6882
rhand -7.69639 -0.964292
rfingers 7.12502
rthumb 18.201 -30.1327
lclavicle -9.93923e-016 -1.07344e-014
lhumerus -44.4108 -1.42548 81.0949
lradius 43.227
lwrist 40.003
lhand -13.644 -9.67101
lfingers 7.12502
lthumb 12.4724 19.9368
rfemur -20.7577 -0.723474 29.6194
rtibia 32.9721
rfoot -23.2462 6.64762
rtoes -12.4851
lfemur -42.4096 4.52489 -17.1719
ltibia 60.4907
lfoot -13.6078 -3.34131
ltoes -16.4787
831
root 1.16217 16.4773 -28.698 29.0055 -63.1412 -381.727
lowerback 4.53753 3.55909 12.8469
upperback -5.00929 5.77021 0.121029
thorax -6.69444 2.15981 -7.57581
lowerneck 1.43171 -2.37528 -33.7992
upperneck 7.61497 -5.9099 35.1407
head 4.05121 -3.37309 19.254
rclavicle 8.40983e-014 3.33958e-014
rhumerus -33.5841 -2.90093 -77.5847
rradius 25.8136
rwrist 22.564
rhand -7.79495 -1.02144
rfingers 7.12502
rthumb 18.1061 -30.1987
lclavicle 8.40983e-014 3.33958e-014
lhumerus -44.2587 -1.54014 81.2808
lradius 43.7315
lwrist 40.2406
lhand -14.0003 -9.93793
lfingers 7.12502
lthumb 12.1288 19.6905
rfemur -20.1366 -1.00384 29.7829
rtibia 32.7041
rfoot -23.41 6.3317
rtoes -12.4309
lfemur -43.0902 4.56936 -17.3657
ltibia 59.0799
lfoot -13.8548 -1.95258
ltoes -17.3721
832
root 1.06958 16.4758 -28.6662 28.6778 -62.5736 -381.439
lowerback 4.64172 3.58538 12.8956
upperback -4.9889 5.825 0.121651
thorax -6.71706 2.18384 -7.6135
lowerneck 1.53716 -2.44008 -33.752
upperneck 7.52747 -6.02591 35.1662
head 4.05474 -3.43721 19.2467
rclavicle 4.31114e-015 3.97569e-015
rhumerus -33.1844 -2.92896 -77.4535
rradius 25.8939
rwrist 22.4515
rhand -7.92837 -1.09056
rfingers 7.12502
rthumb 17.9778 -30.2797
lclavicle 4.31114e-015 3.97569e-015
lhumerus -44.1369 -1.63472 81.4744
lradius 44.2252
lwrist 40.4732
lhand -14.3138 -10.2343
lfingers 7.12502
lthumb 11.8265 19.4117
rfemur -19.5341 -1.27916 29.9178
rtibia 32.421
rfoot -23.5482 6.04436
rtoes -12.3926
lfemur -43.7346 4.5858 -17.5844
ltibia 57.5713
lfoot -13.8415 -0.731529
ltoes -17.4879
833
root 0.97659 16.4743 -28.6327 28.3824 -62.0307 -381.163
lowerback 4.71283 3.60513 12.9218
upperback -4.98196 5.86578 0.139409
thorax -6.74168 2.20163 -7.61724
lowerneck 1.652 -2.47985 -33.749
upperneck 7.45485 -6.10891 35.1887
head 4.04812 -3.48671 19.2513
rclavicle 9.95166e-015 -5.1684e-015
rhumerus -32.7947 -2.87172 -77.3287
rradius 25.9757
rwrist 22.3765
rhand -8.10616 -1.17828
rfingers 7.12502
rthumb 17.8067 -30.383
lclavicle 9.95166e-015 -5.1684e-015
lhumerus -44.0748 -1.65724 81.6682
lradius 44.7112
lwrist 40.6865
lhand -14.5255 -10.491
lfingers 7.12502
lthumb 11.6224 19.1667
rfemur -18.9441 -1.54187 30.0436
rtibia 32.1195
rfoot -23.6695 5.76265
rtoes -12.5081
lfemur -44.3428 4.60146 -17.8018
ltibia 55.9807
lfoot -13.7728 0.302967
ltoes -17.4563
834
root 0.882657 16.4731 -28.5968 28.1243 -61.5149 -380.911
lowerback 4.74661 3.62173 12.9327
upperback -4.98056 5.89623 0.171821
thorax -6.7556 2.21595 -7.59308
lowerneck 1.76357 -2.49935 -33.7711
upperneck 7.40203 -6.16274 35.2023
head 4.03585 -3.52195 19.2598
rclavicle -1.86361e-016 2.0276e-014
rhumerus -32.4139 -2.76105 -77.2062
rradius 26.0627
rwrist 22.3549
rhand -8.30702 -1.2619
rfingers 7.12502
rthumb 17.6134 -30.4841
lclavicle -1.86361e-016 2.0276e-014
lhumerus -44.0581 -1.61337 81.8557
lradius 45.1856
lwrist 40.8735
lhand -14.5934 -10.6675
lfingers 7.12502
lthumb 11.5568 18.9939
rfemur -18.3514 -1.79817 30.1613
rtibia 31.7927
rfoot -23.7754 5.5079
rtoes -12.686
lfemur -44.897 4.60493 -18.0073
ltibia 54.315
lfoot -13.6671 1.15411
ltoes -17.3814
835
root 0.787585 16.4724 -28.5588 27.9053 -61.0275 -380.696
lowerback 4.75189 3.63876 12.9256
upperback -4.9836 5.92244 0.223259
thorax -6.7621 2.22986 -7.53586
lowerneck 1.87703 -2.50132 -33.8244
upperneck 7.3703 -6.19393 35.2089
head 4.02029 -3.54692 19.2744
rclavicle 1.21346e-013 2.38542e-014
rhumerus -32.0413 -2.59243 -77.0825
rradius 26.1475
rwrist 22.3691
rhand -8.53168 -1.34408
rfingers 7.12502
rthumb 17.3972 -30.5855
lclavicle 1.21346e-013 2.38542e-014
lhumerus -44.0832 -1.50512 82.0389
lradius 45.6431
lwrist 41.0341
lhand -14.5499 -10.7933
lfingers 7.12502
lthumb 11.5988 18.8657
rfemur -17.7398 -2.03011 30.2784
rtibia 31.429
rfoot -23.8598 5.26275
rtoes -12.9293
lfemur -45.3913 4.60283 -18.1837
ltibia 52.5866
lfoot -13.5373 1.78786
ltoes -17.2204
836
root 0.691373 16.4725 -28.519 27.7336 -60.5672 -380.528
lowerback 4.72892 3.661 12.9195
upperback -4.98694 5.95134 0.27862
thorax -6.75227 2.24633 -7.47259
lowerneck 1.98978 -2.49441 -33.8812
upperneck 7.34613 -6.21343 35.2168
head 4.00219 -3.56613 19.292
rclavicle -3.8266e-015 -2.06736e-014
rhumerus -31.6713 -2.43534 -76.9621
rradius 26.2238
rwrist 22.4355
rhand -8.77532 -1.42151
rfingers 7.12502
rthumb 17.1627 -30.6835
lclavicle -3.8266e-015 -2.06736e-014
lhumerus -44.1258 -1.37604 82.2015
lradius 46.0794
lwrist 41.1831
lhand -14.3506 -10.7786
lfingers 7.12502
lthumb 11.7911 18.8694
rfemur -17.105 -2.23154 30.4011
rtibia 31.0221
rfoot -23.9199 5.02182
rtoes -13.2251
lfemur -45.8269 4.59462 -18.3157
ltibia 50.8048
lfoot -13.3868 2.21378
ltoes -17.0099
